# xmcd
#
# Track frame offsets: 
#        150
#        21183
#        44720
#        64968
#        87328
#        108455
#        129363
#        150550
#        171033
#        189178
#        208478
#        228053
#        247833
#        268780
#        289900
#        310565
#
# Disc length: 4415 seconds
#
# Revision: 1
# Processed by: cddbd v1.5.2PL0 Copyright (c) Steve Scherf et al.
# Submitted via: ExactAudioCopy v1.3
#
DISCID=db113d10
DTITLE=DEEN - DEEN PERFECT SINGLES and [Disc 1]
DYEAR=2008
DGENRE=JPop
TTITLE0=このまま君だけを奪い去りたい
TTITLE1=翼を広げて
TTITLE2=Memories
TTITLE3=永遠をあずけてくれ
TTITLE4=瞳そらさないで
TTITLE5=Teenage dream
TTITLE6=未来のために
TTITLE7=LOVE FOREVER
TTITLE8=ひとりじゃない
TTITLE9=SUNSHINE ON SUMMER TIME
TTITLE10=素顔で笑っていたい
TTITLE11=君がいない夏
TTITLE12=夢であるように
TTITLE13=遠い空で
TTITLE14=君さえいれば
TTITLE15=手ごたえのない愛
EXTD=
EXTT0=
EXTT1=
EXTT2=
EXTT3=
EXTT4=
EXTT5=
EXTT6=
EXTT7=
EXTT8=
EXTT9=
EXTT10=
EXTT11=
EXTT12=
EXTT13=
EXTT14=
EXTT15=
PLAYORDER=
